<?xml version="1.0" standalone="no"?>
<!DOCTYPE svg PUBLIC "-//W3C//DTD SVG 20010904//EN"
 "http://www.w3.org/TR/2001/REC-SVG-20010904/DTD/svg10.dtd">
<svg version="1.0" xmlns="http://www.w3.org/2000/svg"
 width="512.000000pt" height="512.000000pt" viewBox="0 0 512.000000 512.000000"
 preserveAspectRatio="xMidYMid meet">

<g transform="translate(0.000000,512.000000) scale(0.100000,-0.100000)"
fill="#000000" stroke="none">
<path d="M955 4933 c-120 -17 -272 -81 -372 -157 -147 -112 -254 -279 -298
-466 -22 -98 -22 -3402 0 -3500 56 -242 212 -439 430 -545 180 -87 12 -80
1845 -80 1833 0 1666 -7 1845 80 167 81 281 197 365 370 86 178 80 29 80 1927
0 1462 -2 1692 -15 1748 -56 242 -212 439 -430 545 -179 87 -7 79 -1815 81
-883 1 -1618 -1 -1635 -3z m3213 -288 c186 -44 338 -192 387 -376 22 -81 22
-3337 0 -3418 -35 -132 -141 -266 -261 -329 -125 -65 -32 -62 -1734 -62 -1343
0 -1553 2 -1609 15 -182 43 -338 195 -386 376 -22 81 -22 3337 0 3418 48 181
201 331 383 375 88 22 3129 22 3220 1z"/>
<path d="M1758 3928 c-91 -53 -90 -185 2 -237 l38 -21 774 2 c755 3 774 3 800
23 76 56 76 174 0 230 -26 20 -45 20 -802 22 l-775 3 -37 -22z"/>
<path d="M3855 2899 c-16 -5 -97 -63 -180 -129 -82 -66 -152 -120 -155 -120
-3 0 -23 23 -44 50 -46 61 -80 80 -138 80 -101 0 -169 -106 -124 -192 28 -53
189 -249 217 -263 38 -20 109 -19 139 2 96 66 433 350 446 375 39 75 -5 176
-85 198 -41 11 -36 11 -76 -1z"/>
<path d="M1184 2739 c-18 -5 -46 -25 -63 -44 -25 -29 -31 -44 -31 -83 0 -29 8
-59 20 -79 40 -66 0 -63 837 -63 734 0 759 1 790 20 41 25 63 68 63 124 0 36
-6 52 -31 80 -17 20 -47 40 -67 46 -47 13 -1474 12 -1518 -1z"/>
<path d="M3842 1760 c-12 -5 -90 -64 -173 -131 l-151 -121 -16 23 c-41 58 -87
100 -123 111 -105 31 -204 -71 -170 -174 16 -47 185 -259 224 -280 36 -20 73
-23 113 -8 42 16 459 356 472 385 18 39 14 106 -7 141 -32 52 -110 77 -169 54z"/>
<path d="M1161 1593 c-67 -33 -93 -132 -52 -199 40 -66 9 -64 836 -64 665 0
751 2 781 16 98 47 99 201 1 247 -32 15 -105 17 -784 17 -677 0 -751 -2 -782
-17z"/>
</g>
</svg>
